<svg xmlns="http://www.w3.org/2000/svg" xmlns:xlink="http://www.w3.org/1999/xlink" viewBox="0 0 166.81 44.46"><defs><style>.cls-1{fill:#d5eef7;}.cls-2{fill:url(#linear-gradient);}.cls-3{fill:url(#linear-gradient-2);}.cls-4{fill:url(#linear-gradient-3);}</style><linearGradient id="linear-gradient" x1="154.97" y1="22.23" x2="166.81" y2="22.23" gradientUnits="userSpaceOnUse"><stop offset="0" stop-color="#1bbed0"/><stop offset="0.07" stop-color="#04b6c7"/><stop offset="0.5" stop-color="#018493"/><stop offset="0.82" stop-color="#036574"/><stop offset="1" stop-color="#015866"/></linearGradient><linearGradient id="linear-gradient-2" x1="96.96" y1="22.23" x2="85.13" y2="22.23" xlink:href="#linear-gradient"/><linearGradient id="linear-gradient-3" x1="28.37" y1="33" x2="31.66" y2="33" gradientUnits="userSpaceOnUse"><stop offset="0" stop-color="#1bbed0"/><stop offset="0.38" stop-color="#00a3b4"/><stop offset="0.76" stop-color="#008d9c"/><stop offset="1" stop-color="#008393"/></linearGradient></defs><title>logo-dark</title><g id="Layer_2" data-name="Layer 2"><g id="Layer_1-2" data-name="Layer 1"><path class="cls-1" d="M43.65,3c-.35,0-.54.16-.54.51v32H40.19V3.5a.45.45,0,0,0-.5-.51H34V0H49.34V3H43.65Z"/><path class="cls-1" d="M73.2,12.45a13.19,13.19,0,0,1,4,9.69v1.47H53.36c-.39,0-.51.2-.46.51a10.75,10.75,0,0,0,10.57,8.79,10.8,10.8,0,0,0,10-6.49h3.11a13.45,13.45,0,0,1-5,6.84A13.65,13.65,0,0,1,53.8,31.82a13.18,13.18,0,0,1-4-9.68,13.18,13.18,0,0,1,4-9.68,13.65,13.65,0,0,1,19.4,0M56.58,13.81a10.6,10.6,0,0,0-3.69,6.31c0,.39.08.54.47.54H73.62c.35,0,.51-.15.47-.54a10.41,10.41,0,0,0-3.74-6.31,10.53,10.53,0,0,0-6.88-2.48,10.68,10.68,0,0,0-6.89,2.48"/><rect class="cls-1" x="80.93" y="0.04" width="2.96" height="35.44"/><path class="cls-2" d="M155.1,9l8.32,11.8a2.46,2.46,0,0,1,.43,1.36,2.73,2.73,0,0,1-.43,1.44L155,35.48h3.63l7.23-10.23a5.38,5.38,0,0,0,0-6.19L158.68,9Z"/><path class="cls-3" d="M93.34,9,86.1,19.21a5.16,5.16,0,0,0-1,3.12,5.06,5.06,0,0,0,1,3.07l7.16,10.08h3.58L88.52,23.69a2.49,2.49,0,0,1-.43-1.36,2.7,2.7,0,0,1,.43-1.44L97,9Z"/><path class="cls-1" d="M149.28,12.45a13.19,13.19,0,0,1,4,9.69,13.18,13.18,0,0,1-4,9.68,13.14,13.14,0,0,1-9.73,4A13.29,13.29,0,0,1,129.17,31c0-.08-.15-.12-.31-.08s-.12.12-.12.2v13.3h-2.88V21.94a12.88,12.88,0,0,1,4-9.53,13.72,13.72,0,0,1,19.41,0m-17.39,2a10.49,10.49,0,0,0-3.15,7.66,10.74,10.74,0,0,0,10.81,10.77,10.34,10.34,0,0,0,7.67-3.14,10.37,10.37,0,0,0,3.19-7.63,10.38,10.38,0,0,0-3.19-7.66,10.9,10.9,0,0,0-15.33,0"/><path class="cls-1" d="M119.18,0V25.21a7.69,7.69,0,1,1-15.37,0V9h-2.88V25.21a10,10,0,0,0,3.08,7.5,10.53,10.53,0,0,0,14.94,0,10.25,10.25,0,0,0,3.11-7.5V0Z"/><path class="cls-4" d="M28.37,33A1.65,1.65,0,1,0,30,31.36,1.65,1.65,0,0,0,28.37,33"/><path class="cls-1" d="M13.69,36.06a13.25,13.25,0,0,1-9.68-4,12.84,12.84,0,0,1-4-9.53V0H2.88V13.31c0,.07,0,.11.12.19s.27,0,.31-.08A13.28,13.28,0,0,1,13.69,8.6a13.15,13.15,0,0,1,9.72,4,13.2,13.2,0,0,1,4,9.69,13.19,13.19,0,0,1-4,9.68,13.13,13.13,0,0,1-9.72,4.05m0-2.92A10.32,10.32,0,0,0,21.36,30a10.37,10.37,0,0,0,3.19-7.66,10.32,10.32,0,0,0-3.19-7.63,10.35,10.35,0,0,0-7.67-3.14A10.44,10.44,0,0,0,6,14.7a10.47,10.47,0,0,0-3.15,7.63A10.49,10.49,0,0,0,6,30a10.39,10.39,0,0,0,7.66,3.15"/></g></g></svg>